<svg width="60" height="60" viewBox="0 0 60 60" fill="none" xmlns="http://www.w3.org/2000/svg">
<rect width="60" height="60" rx="30" fill="#FA6A00"/>
<path d="M29.9978 8.92943C34.1641 8.9292 38.2369 10.1645 41.7011 12.4792C45.1654 14.7939 47.8655 18.084 49.46 21.9334C51.0545 25.7827 51.4717 30.0185 50.659 34.1051C49.8462 38.1916 47.84 41.9453 44.8939 44.8915C41.9479 47.8377 38.1944 49.8441 34.1082 50.6569C30.0219 51.4697 25.7864 51.0525 21.9373 49.4579C18.0881 47.8633 14.7983 45.163 12.4837 41.6985C10.1692 38.234 8.93396 34.161 8.93419 29.9944C8.93419 24.4076 11.1534 19.0497 15.1036 15.0992C19.0537 11.1488 24.4113 8.92943 29.9978 8.92943ZM29.9978 6.60014C24.5986 6.60024 19.3655 8.46767 15.1859 11.8858C11.0063 15.304 8.13733 20.0625 7.06541 25.3545C5.99349 30.6466 6.7846 36.1466 9.30461 40.9219C11.8246 45.6972 15.9184 49.4541 20.892 51.5555C26.6092 53.9708 33.0517 54.0159 38.8021 51.6808C44.5526 49.3457 49.1399 44.8218 51.5551 39.1042C53.9703 33.3867 54.0153 26.9438 51.6804 21.1929C49.3455 15.4421 44.8219 10.8544 39.1047 8.43912C36.2237 7.21967 33.1262 6.5942 29.9978 6.60014Z" fill="white"/>
<path d="M25.3548 38.9643C24.9305 38.9631 24.514 38.8502 24.1472 38.637C23.7777 38.4265 23.4711 38.1212 23.2588 37.7528C23.0465 37.3843 22.9363 36.9659 22.9395 36.5406V23.6631C22.9387 23.2388 23.0498 22.8217 23.2614 22.4538C23.4731 22.086 23.7779 21.7804 24.1452 21.5679C24.5125 21.3554 24.9294 21.2434 25.3537 21.2432C25.7781 21.243 26.195 21.3546 26.5625 21.5668L37.7179 28.0073C38.0847 28.2195 38.3892 28.5245 38.601 28.8917C38.8127 29.2588 38.9241 29.6752 38.9241 30.099C38.9241 30.5228 38.8127 30.9391 38.601 31.3063C38.3892 31.6734 38.0847 31.9784 37.7179 32.1907L26.5625 38.6323C26.1961 38.8472 25.7796 38.9617 25.3548 38.9643ZM25.3548 23.5758C25.3392 23.5763 25.324 23.5807 25.3106 23.5886C25.2966 23.595 25.2849 23.6057 25.2772 23.619C25.2695 23.6324 25.2661 23.6478 25.2675 23.6631V36.5453C25.2677 36.5603 25.2719 36.575 25.2795 36.5879C25.2872 36.6009 25.2981 36.6116 25.3111 36.619C25.3242 36.6264 25.339 36.6303 25.354 36.6302C25.369 36.6302 25.3838 36.6262 25.3968 36.6187L36.5522 30.1782C36.5659 30.1714 36.5772 30.1607 36.5847 30.1474C36.5921 30.1341 36.5954 30.1188 36.5941 30.1036C36.5953 30.0885 36.5919 30.0733 36.5845 30.06C36.577 30.0467 36.5658 30.036 36.5522 30.0291L25.3968 23.5886C25.3843 23.5804 25.3697 23.576 25.3548 23.5758Z" fill="white"/>
</svg>
