<svg width="24" height="24" viewBox="0 0 24 24" fill="none" xmlns="http://www.w3.org/2000/svg">
<path d="M11.076 21.2696C11.0123 21.2696 10.9493 21.2564 10.891 21.2309C10.8327 21.2054 10.7803 21.1681 10.737 21.1213L1.59918 11.2368C1.53827 11.1709 1.49788 11.0887 1.48298 11.0002C1.46807 10.9117 1.47928 10.8208 1.51524 10.7385C1.55121 10.6563 1.61036 10.5864 1.68546 10.5372C1.76056 10.4881 1.84835 10.462 1.93809 10.462H6.33655C6.40259 10.462 6.46786 10.4761 6.52796 10.5035C6.58805 10.5309 6.64158 10.5708 6.68492 10.6207L9.73883 14.1341C10.0689 13.4286 10.7078 12.2539 11.829 10.8225C13.4864 8.70631 16.5694 5.59411 21.8441 2.78463C21.946 2.73034 22.0646 2.71625 22.1764 2.74514C22.2883 2.77403 22.3852 2.84381 22.4481 2.94068C22.511 3.03756 22.5353 3.1545 22.5162 3.26841C22.497 3.38232 22.4359 3.48492 22.3448 3.55595C22.3247 3.57169 20.291 5.17323 17.9504 8.10672C15.7963 10.8063 12.9329 15.2204 11.5238 20.919C11.4991 21.0191 11.4415 21.1081 11.3603 21.1717C11.2791 21.2352 11.1789 21.2698 11.0758 21.2698L11.076 21.2696Z" fill="#D49E14"/>
</svg>
